<mxfile host="app.diagrams.net" agent="Mozilla/5.0 (Windows NT 10.0; Win64; x64) AppleWebKit/537.36 (KHTML, like Gecko) Chrome/131.0.0.0 Safari/537.36" version="25.0.3">
  <diagram name="Страница — 1" id="w6UIy6SmmdJBP-90Wufn">
    <mxGraphModel dx="2160" dy="1171" grid="1" gridSize="10" guides="1" tooltips="1" connect="1" arrows="1" fold="1" page="1" pageScale="1" pageWidth="827" pageHeight="1169" math="0" shadow="0">
      <root>
        <mxCell id="0" />
        <mxCell id="1" parent="0" />
        <mxCell id="D57-E26kunQoxDbnnpF6-10" value="" style="html=1;align=center;verticalAlign=middle;dashed=0;whiteSpace=wrap;" parent="1" vertex="1">
          <mxGeometry x="50" y="40" width="180" height="620" as="geometry" />
        </mxCell>
        <mxCell id="D57-E26kunQoxDbnnpF6-23" style="edgeStyle=orthogonalEdgeStyle;rounded=0;orthogonalLoop=1;jettySize=auto;html=1;exitX=0.5;exitY=1;exitDx=0;exitDy=0;entryX=0;entryY=0.5;entryDx=0;entryDy=0;" parent="1" source="D57-E26kunQoxDbnnpF6-11" target="D57-E26kunQoxDbnnpF6-22" edge="1">
          <mxGeometry relative="1" as="geometry" />
        </mxCell>
        <mxCell id="D57-E26kunQoxDbnnpF6-11" value="" style="ellipse;fillColor=strokeColor;html=1;" parent="1" vertex="1">
          <mxGeometry x="60" y="50" width="30" height="30" as="geometry" />
        </mxCell>
        <mxCell id="D57-E26kunQoxDbnnpF6-13" value="" style="html=1;align=center;verticalAlign=middle;dashed=0;whiteSpace=wrap;" parent="1" vertex="1">
          <mxGeometry x="220" y="40" width="180" height="620" as="geometry" />
        </mxCell>
        <mxCell id="D57-E26kunQoxDbnnpF6-14" value="" style="html=1;align=center;verticalAlign=middle;dashed=0;whiteSpace=wrap;" parent="1" vertex="1">
          <mxGeometry x="580" y="40" width="180" height="620" as="geometry" />
        </mxCell>
        <mxCell id="D57-E26kunQoxDbnnpF6-15" value="" style="html=1;align=center;verticalAlign=middle;dashed=0;whiteSpace=wrap;" parent="1" vertex="1">
          <mxGeometry x="400" y="40" width="180" height="620" as="geometry" />
        </mxCell>
        <mxCell id="D57-E26kunQoxDbnnpF6-16" value="" style="html=1;align=center;verticalAlign=middle;dashed=0;whiteSpace=wrap;" parent="1" vertex="1">
          <mxGeometry x="760" y="40" width="180" height="620" as="geometry" />
        </mxCell>
        <mxCell id="D57-E26kunQoxDbnnpF6-17" value="Клиент" style="text;html=1;align=center;verticalAlign=middle;resizable=0;points=[];autosize=1;strokeColor=none;fillColor=none;" parent="1" vertex="1">
          <mxGeometry x="85" y="10" width="60" height="30" as="geometry" />
        </mxCell>
        <mxCell id="D57-E26kunQoxDbnnpF6-18" value="Система" style="text;html=1;align=center;verticalAlign=middle;resizable=0;points=[];autosize=1;strokeColor=none;fillColor=none;" parent="1" vertex="1">
          <mxGeometry x="275" y="10" width="70" height="30" as="geometry" />
        </mxCell>
        <mxCell id="D57-E26kunQoxDbnnpF6-19" value="Склад" style="text;html=1;align=center;verticalAlign=middle;resizable=0;points=[];autosize=1;strokeColor=none;fillColor=none;" parent="1" vertex="1">
          <mxGeometry x="650" y="10" width="60" height="30" as="geometry" />
        </mxCell>
        <mxCell id="D57-E26kunQoxDbnnpF6-20" value="Платежный шлюз" style="text;html=1;align=center;verticalAlign=middle;resizable=0;points=[];autosize=1;strokeColor=none;fillColor=none;" parent="1" vertex="1">
          <mxGeometry x="430" y="10" width="120" height="30" as="geometry" />
        </mxCell>
        <mxCell id="D57-E26kunQoxDbnnpF6-21" value="Курьерская служба" style="text;html=1;align=center;verticalAlign=middle;resizable=0;points=[];autosize=1;strokeColor=none;fillColor=none;" parent="1" vertex="1">
          <mxGeometry x="785" y="10" width="130" height="30" as="geometry" />
        </mxCell>
        <mxCell id="D57-E26kunQoxDbnnpF6-26" style="edgeStyle=orthogonalEdgeStyle;rounded=0;orthogonalLoop=1;jettySize=auto;html=1;exitX=1;exitY=0.5;exitDx=0;exitDy=0;entryX=0.5;entryY=0;entryDx=0;entryDy=0;" parent="1" source="D57-E26kunQoxDbnnpF6-22" target="D57-E26kunQoxDbnnpF6-25" edge="1">
          <mxGeometry relative="1" as="geometry">
            <Array as="points">
              <mxPoint x="200" y="125" />
              <mxPoint x="200" y="90" />
              <mxPoint x="210" y="90" />
              <mxPoint x="210" y="50" />
            </Array>
          </mxGeometry>
        </mxCell>
        <mxCell id="D57-E26kunQoxDbnnpF6-22" value="&lt;font style=&quot;font-size: 9px;&quot;&gt;Создание заказа&lt;/font&gt;" style="html=1;align=center;verticalAlign=top;rounded=1;absoluteArcSize=1;arcSize=10;dashed=0;whiteSpace=wrap;" parent="1" vertex="1">
          <mxGeometry x="110" y="110" width="100" height="30" as="geometry" />
        </mxCell>
        <mxCell id="D57-E26kunQoxDbnnpF6-29" style="edgeStyle=orthogonalEdgeStyle;rounded=0;orthogonalLoop=1;jettySize=auto;html=1;exitX=0;exitY=0.5;exitDx=0;exitDy=0;" parent="1" source="D57-E26kunQoxDbnnpF6-25" edge="1">
          <mxGeometry relative="1" as="geometry">
            <mxPoint x="90" y="120" as="targetPoint" />
            <Array as="points">
              <mxPoint x="230" y="90" />
              <mxPoint x="230" y="160" />
              <mxPoint x="90" y="160" />
            </Array>
          </mxGeometry>
        </mxCell>
        <mxCell id="D57-E26kunQoxDbnnpF6-31" value="Изменить заказ" style="edgeLabel;html=1;align=center;verticalAlign=middle;resizable=0;points=[];" parent="D57-E26kunQoxDbnnpF6-29" vertex="1" connectable="0">
          <mxGeometry x="-0.0504" y="-3" relative="1" as="geometry">
            <mxPoint as="offset" />
          </mxGeometry>
        </mxCell>
        <mxCell id="D57-E26kunQoxDbnnpF6-34" style="edgeStyle=orthogonalEdgeStyle;rounded=0;orthogonalLoop=1;jettySize=auto;html=1;exitX=1;exitY=0.5;exitDx=0;exitDy=0;entryX=1;entryY=0.5;entryDx=0;entryDy=0;" parent="1" source="D57-E26kunQoxDbnnpF6-25" target="D57-E26kunQoxDbnnpF6-33" edge="1">
          <mxGeometry relative="1" as="geometry" />
        </mxCell>
        <mxCell id="D57-E26kunQoxDbnnpF6-35" value="да" style="edgeLabel;html=1;align=center;verticalAlign=middle;resizable=0;points=[];" parent="D57-E26kunQoxDbnnpF6-34" vertex="1" connectable="0">
          <mxGeometry x="-0.6088" y="1" relative="1" as="geometry">
            <mxPoint as="offset" />
          </mxGeometry>
        </mxCell>
        <mxCell id="D57-E26kunQoxDbnnpF6-25" value="&lt;font style=&quot;font-size: 9px;&quot;&gt;Наличии товара&lt;/font&gt;" style="rhombus;whiteSpace=wrap;html=1;" parent="1" vertex="1">
          <mxGeometry x="250" y="60" width="80" height="80" as="geometry" />
        </mxCell>
        <mxCell id="D57-E26kunQoxDbnnpF6-40" style="edgeStyle=orthogonalEdgeStyle;rounded=0;orthogonalLoop=1;jettySize=auto;html=1;exitX=0;exitY=0.5;exitDx=0;exitDy=0;entryX=0.5;entryY=0;entryDx=0;entryDy=0;" parent="1" source="D57-E26kunQoxDbnnpF6-33" target="D57-E26kunQoxDbnnpF6-43" edge="1">
          <mxGeometry relative="1" as="geometry">
            <mxPoint x="160" y="210" as="targetPoint" />
            <Array as="points">
              <mxPoint x="260" y="180" />
              <mxPoint x="150" y="180" />
              <mxPoint x="150" y="220" />
            </Array>
          </mxGeometry>
        </mxCell>
        <mxCell id="D57-E26kunQoxDbnnpF6-33" value="&lt;font style=&quot;font-size: 9px;&quot;&gt;Подтверждение заказа&lt;/font&gt;" style="html=1;align=center;verticalAlign=top;rounded=1;absoluteArcSize=1;arcSize=10;dashed=0;whiteSpace=wrap;" parent="1" vertex="1">
          <mxGeometry x="260" y="210" width="100" height="30" as="geometry" />
        </mxCell>
        <mxCell id="D57-E26kunQoxDbnnpF6-44" style="edgeStyle=orthogonalEdgeStyle;rounded=0;orthogonalLoop=1;jettySize=auto;html=1;exitX=1;exitY=0.5;exitDx=0;exitDy=0;entryX=0.5;entryY=0;entryDx=0;entryDy=0;" parent="1" source="D57-E26kunQoxDbnnpF6-43" target="D57-E26kunQoxDbnnpF6-46" edge="1">
          <mxGeometry relative="1" as="geometry">
            <mxPoint x="440" y="65" as="targetPoint" />
            <Array as="points">
              <mxPoint x="390" y="290" />
              <mxPoint x="390" y="50" />
              <mxPoint x="490" y="50" />
            </Array>
          </mxGeometry>
        </mxCell>
        <mxCell id="D57-E26kunQoxDbnnpF6-45" value="онлайн" style="edgeLabel;html=1;align=center;verticalAlign=middle;resizable=0;points=[];" parent="D57-E26kunQoxDbnnpF6-44" vertex="1" connectable="0">
          <mxGeometry x="-0.7593" y="1" relative="1" as="geometry">
            <mxPoint as="offset" />
          </mxGeometry>
        </mxCell>
        <mxCell id="D57-E26kunQoxDbnnpF6-64" style="edgeStyle=orthogonalEdgeStyle;rounded=0;orthogonalLoop=1;jettySize=auto;html=1;exitX=0;exitY=0.5;exitDx=0;exitDy=0;entryX=0.5;entryY=0;entryDx=0;entryDy=0;" parent="1" source="D57-E26kunQoxDbnnpF6-43" target="D57-E26kunQoxDbnnpF6-63" edge="1">
          <mxGeometry relative="1" as="geometry" />
        </mxCell>
        <mxCell id="D57-E26kunQoxDbnnpF6-65" value="при доставке" style="edgeLabel;html=1;align=center;verticalAlign=middle;resizable=0;points=[];" parent="D57-E26kunQoxDbnnpF6-64" vertex="1" connectable="0">
          <mxGeometry x="-0.1321" y="1" relative="1" as="geometry">
            <mxPoint as="offset" />
          </mxGeometry>
        </mxCell>
        <mxCell id="D57-E26kunQoxDbnnpF6-43" value="&lt;font style=&quot;font-size: 9px;&quot;&gt;Вид платежа&lt;/font&gt;" style="rhombus;whiteSpace=wrap;html=1;" parent="1" vertex="1">
          <mxGeometry x="130" y="230" width="80" height="80" as="geometry" />
        </mxCell>
        <mxCell id="D57-E26kunQoxDbnnpF6-49" style="edgeStyle=orthogonalEdgeStyle;rounded=0;orthogonalLoop=1;jettySize=auto;html=1;exitX=0;exitY=0.5;exitDx=0;exitDy=0;" parent="1" source="D57-E26kunQoxDbnnpF6-46" edge="1">
          <mxGeometry relative="1" as="geometry">
            <mxPoint x="289.1304347826087" y="290" as="targetPoint" />
            <Array as="points">
              <mxPoint x="430" y="110" />
              <mxPoint x="430" y="320" />
              <mxPoint x="289" y="320" />
            </Array>
          </mxGeometry>
        </mxCell>
        <mxCell id="D57-E26kunQoxDbnnpF6-50" value="Повторить оплату" style="edgeLabel;html=1;align=center;verticalAlign=middle;resizable=0;points=[];" parent="D57-E26kunQoxDbnnpF6-49" vertex="1" connectable="0">
          <mxGeometry x="0.3893" y="3" relative="1" as="geometry">
            <mxPoint as="offset" />
          </mxGeometry>
        </mxCell>
        <mxCell id="D57-E26kunQoxDbnnpF6-52" style="edgeStyle=orthogonalEdgeStyle;rounded=0;orthogonalLoop=1;jettySize=auto;html=1;exitX=1;exitY=0.5;exitDx=0;exitDy=0;entryX=0;entryY=0.5;entryDx=0;entryDy=0;" parent="1" source="D57-E26kunQoxDbnnpF6-46" target="D57-E26kunQoxDbnnpF6-51" edge="1">
          <mxGeometry relative="1" as="geometry" />
        </mxCell>
        <mxCell id="D57-E26kunQoxDbnnpF6-53" value="да" style="edgeLabel;html=1;align=center;verticalAlign=middle;resizable=0;points=[];" parent="D57-E26kunQoxDbnnpF6-52" vertex="1" connectable="0">
          <mxGeometry x="0.0193" relative="1" as="geometry">
            <mxPoint as="offset" />
          </mxGeometry>
        </mxCell>
        <mxCell id="D57-E26kunQoxDbnnpF6-46" value="&lt;font style=&quot;font-size: 9px;&quot;&gt;Проверка платёжа&lt;/font&gt;" style="rhombus;whiteSpace=wrap;html=1;" parent="1" vertex="1">
          <mxGeometry x="450" y="70" width="80" height="80" as="geometry" />
        </mxCell>
        <mxCell id="D57-E26kunQoxDbnnpF6-57" style="edgeStyle=orthogonalEdgeStyle;rounded=0;orthogonalLoop=1;jettySize=auto;html=1;exitX=0.5;exitY=1;exitDx=0;exitDy=0;entryX=0.5;entryY=0;entryDx=0;entryDy=0;" parent="1" source="D57-E26kunQoxDbnnpF6-51" target="D57-E26kunQoxDbnnpF6-56" edge="1">
          <mxGeometry relative="1" as="geometry" />
        </mxCell>
        <mxCell id="D57-E26kunQoxDbnnpF6-51" value="&lt;font style=&quot;font-size: 9px;&quot;&gt;Сборка заказа&lt;/font&gt;" style="html=1;align=center;verticalAlign=top;rounded=1;absoluteArcSize=1;arcSize=10;dashed=0;whiteSpace=wrap;" parent="1" vertex="1">
          <mxGeometry x="620" y="65" width="100" height="30" as="geometry" />
        </mxCell>
        <mxCell id="D57-E26kunQoxDbnnpF6-59" style="edgeStyle=orthogonalEdgeStyle;rounded=0;orthogonalLoop=1;jettySize=auto;html=1;exitX=1;exitY=0.5;exitDx=0;exitDy=0;entryX=0;entryY=0.5;entryDx=0;entryDy=0;" parent="1" source="D57-E26kunQoxDbnnpF6-56" target="D57-E26kunQoxDbnnpF6-58" edge="1">
          <mxGeometry relative="1" as="geometry" />
        </mxCell>
        <mxCell id="D57-E26kunQoxDbnnpF6-60" value="доставка" style="edgeLabel;html=1;align=center;verticalAlign=middle;resizable=0;points=[];" parent="D57-E26kunQoxDbnnpF6-59" vertex="1" connectable="0">
          <mxGeometry x="-0.5256" y="3" relative="1" as="geometry">
            <mxPoint as="offset" />
          </mxGeometry>
        </mxCell>
        <mxCell id="D57-E26kunQoxDbnnpF6-69" style="edgeStyle=orthogonalEdgeStyle;rounded=0;orthogonalLoop=1;jettySize=auto;html=1;exitX=0;exitY=0.5;exitDx=0;exitDy=0;entryX=1;entryY=0.5;entryDx=0;entryDy=0;" parent="1" source="D57-E26kunQoxDbnnpF6-56" target="D57-E26kunQoxDbnnpF6-67" edge="1">
          <mxGeometry relative="1" as="geometry">
            <Array as="points">
              <mxPoint x="490" y="180" />
              <mxPoint x="490" y="405" />
            </Array>
          </mxGeometry>
        </mxCell>
        <mxCell id="D57-E26kunQoxDbnnpF6-70" value="уведомление" style="edgeLabel;html=1;align=center;verticalAlign=middle;resizable=0;points=[];" parent="D57-E26kunQoxDbnnpF6-69" vertex="1" connectable="0">
          <mxGeometry x="0.5168" y="2" relative="1" as="geometry">
            <mxPoint as="offset" />
          </mxGeometry>
        </mxCell>
        <mxCell id="D57-E26kunQoxDbnnpF6-56" value="&lt;font style=&quot;font-size: 9px;&quot;&gt;Способ доставки&lt;/font&gt;" style="rhombus;whiteSpace=wrap;html=1;" parent="1" vertex="1">
          <mxGeometry x="630" y="140" width="80" height="80" as="geometry" />
        </mxCell>
        <mxCell id="D57-E26kunQoxDbnnpF6-77" style="edgeStyle=orthogonalEdgeStyle;rounded=0;orthogonalLoop=1;jettySize=auto;html=1;exitX=0.5;exitY=1;exitDx=0;exitDy=0;entryX=1;entryY=0.5;entryDx=0;entryDy=0;" parent="1" source="D57-E26kunQoxDbnnpF6-58" target="D57-E26kunQoxDbnnpF6-73" edge="1">
          <mxGeometry relative="1" as="geometry" />
        </mxCell>
        <mxCell id="D57-E26kunQoxDbnnpF6-58" value="&lt;font size=&quot;1&quot;&gt;Принятие заявки&lt;/font&gt;" style="html=1;align=center;verticalAlign=top;rounded=1;absoluteArcSize=1;arcSize=10;dashed=0;whiteSpace=wrap;" parent="1" vertex="1">
          <mxGeometry x="800" y="65" width="100" height="25" as="geometry" />
        </mxCell>
        <mxCell id="D57-E26kunQoxDbnnpF6-61" value="Начало" style="text;html=1;align=center;verticalAlign=middle;resizable=0;points=[];autosize=1;strokeColor=none;fillColor=none;" parent="1" vertex="1">
          <mxGeometry x="75" y="40" width="70" height="30" as="geometry" />
        </mxCell>
        <mxCell id="D57-E26kunQoxDbnnpF6-63" value="&lt;font style=&quot;font-size: 9px;&quot;&gt;При доставке&lt;/font&gt;" style="html=1;align=center;verticalAlign=top;rounded=1;absoluteArcSize=1;arcSize=10;dashed=0;whiteSpace=wrap;" parent="1" vertex="1">
          <mxGeometry x="40" y="290" width="100" height="30" as="geometry" />
        </mxCell>
        <mxCell id="D57-E26kunQoxDbnnpF6-67" value="&lt;font style=&quot;font-size: 9px;&quot;&gt;Заказ готова&lt;/font&gt;" style="html=1;align=center;verticalAlign=top;rounded=1;absoluteArcSize=1;arcSize=10;dashed=0;whiteSpace=wrap;" parent="1" vertex="1">
          <mxGeometry x="65" y="390" width="100" height="30" as="geometry" />
        </mxCell>
        <mxCell id="D57-E26kunQoxDbnnpF6-80" style="edgeStyle=orthogonalEdgeStyle;rounded=0;orthogonalLoop=1;jettySize=auto;html=1;exitX=0.5;exitY=1;exitDx=0;exitDy=0;" parent="1" source="D57-E26kunQoxDbnnpF6-73" edge="1">
          <mxGeometry relative="1" as="geometry">
            <mxPoint x="300" y="510" as="targetPoint" />
          </mxGeometry>
        </mxCell>
        <mxCell id="D57-E26kunQoxDbnnpF6-73" value="&lt;font size=&quot;1&quot;&gt;Подтверждение заказа&lt;/font&gt;" style="html=1;align=center;verticalAlign=top;rounded=1;absoluteArcSize=1;arcSize=10;dashed=0;whiteSpace=wrap;" parent="1" vertex="1">
          <mxGeometry x="75" y="450" width="110" height="30" as="geometry" />
        </mxCell>
        <mxCell id="D57-E26kunQoxDbnnpF6-79" value="" style="endArrow=none;startArrow=none;endFill=0;startFill=0;endSize=8;html=1;verticalAlign=bottom;labelBackgroundColor=none;strokeWidth=5;rounded=0;" parent="1" edge="1">
          <mxGeometry width="160" relative="1" as="geometry">
            <mxPoint x="260" y="510" as="sourcePoint" />
            <mxPoint x="330" y="510" as="targetPoint" />
          </mxGeometry>
        </mxCell>
        <mxCell id="D57-E26kunQoxDbnnpF6-81" value="&lt;font size=&quot;1&quot;&gt;Электронный чек&lt;/font&gt;" style="html=1;align=center;verticalAlign=top;rounded=1;absoluteArcSize=1;arcSize=10;dashed=0;whiteSpace=wrap;" parent="1" vertex="1">
          <mxGeometry x="75" y="540" width="110" height="30" as="geometry" />
        </mxCell>
        <mxCell id="D57-E26kunQoxDbnnpF6-82" style="edgeStyle=orthogonalEdgeStyle;rounded=0;orthogonalLoop=1;jettySize=auto;html=1;entryX=0.424;entryY=0.178;entryDx=0;entryDy=0;entryPerimeter=0;" parent="1" target="D57-E26kunQoxDbnnpF6-81" edge="1">
          <mxGeometry relative="1" as="geometry">
            <mxPoint x="310" y="520" as="targetPoint" />
            <mxPoint x="290" y="510" as="sourcePoint" />
            <Array as="points">
              <mxPoint x="290" y="530" />
              <mxPoint x="122" y="530" />
            </Array>
          </mxGeometry>
        </mxCell>
        <mxCell id="D57-E26kunQoxDbnnpF6-83" value="" style="ellipse;html=1;shape=endState;fillColor=strokeColor;" parent="1" vertex="1">
          <mxGeometry x="301" y="600" width="30" height="30" as="geometry" />
        </mxCell>
        <mxCell id="D57-E26kunQoxDbnnpF6-84" style="edgeStyle=orthogonalEdgeStyle;rounded=0;orthogonalLoop=1;jettySize=auto;html=1;entryX=0.5;entryY=0;entryDx=0;entryDy=0;" parent="1" target="D57-E26kunQoxDbnnpF6-83" edge="1">
          <mxGeometry relative="1" as="geometry">
            <mxPoint x="132" y="555" as="targetPoint" />
            <mxPoint x="316" y="510" as="sourcePoint" />
            <Array as="points">
              <mxPoint x="300" y="510" />
              <mxPoint x="300" y="570" />
              <mxPoint x="316" y="570" />
            </Array>
          </mxGeometry>
        </mxCell>
        <mxCell id="HVMt_QrWiglbx-ISHmp0-1" value="пользователь" style="shape=umlLifeline;perimeter=lifelinePerimeter;whiteSpace=wrap;html=1;container=1;dropTarget=0;collapsible=0;recursiveResize=0;outlineConnect=0;portConstraint=eastwest;newEdgeStyle={&quot;curved&quot;:0,&quot;rounded&quot;:0};" vertex="1" parent="1">
          <mxGeometry x="40" y="770" width="100" height="790" as="geometry" />
        </mxCell>
        <mxCell id="HVMt_QrWiglbx-ISHmp0-2" value="система" style="shape=umlLifeline;perimeter=lifelinePerimeter;whiteSpace=wrap;html=1;container=1;dropTarget=0;collapsible=0;recursiveResize=0;outlineConnect=0;portConstraint=eastwest;newEdgeStyle={&quot;curved&quot;:0,&quot;rounded&quot;:0};" vertex="1" parent="1">
          <mxGeometry x="175" y="770" width="100" height="790" as="geometry" />
        </mxCell>
        <mxCell id="HVMt_QrWiglbx-ISHmp0-3" value="платежный&lt;br&gt;шлюз" style="shape=umlLifeline;perimeter=lifelinePerimeter;whiteSpace=wrap;html=1;container=1;dropTarget=0;collapsible=0;recursiveResize=0;outlineConnect=0;portConstraint=eastwest;newEdgeStyle={&quot;curved&quot;:0,&quot;rounded&quot;:0};" vertex="1" parent="1">
          <mxGeometry x="313" y="770" width="100" height="790" as="geometry" />
        </mxCell>
        <mxCell id="HVMt_QrWiglbx-ISHmp0-4" value="база данных" style="shape=umlLifeline;perimeter=lifelinePerimeter;whiteSpace=wrap;html=1;container=1;dropTarget=0;collapsible=0;recursiveResize=0;outlineConnect=0;portConstraint=eastwest;newEdgeStyle={&quot;curved&quot;:0,&quot;rounded&quot;:0};" vertex="1" parent="1">
          <mxGeometry x="450" y="770" width="100" height="790" as="geometry" />
        </mxCell>
        <mxCell id="HVMt_QrWiglbx-ISHmp0-5" value="&lt;font style=&quot;font-size: 8px;&quot;&gt;выбрать курс&lt;/font&gt;" style="html=1;verticalAlign=bottom;endArrow=block;curved=0;rounded=0;" edge="1" parent="1" target="HVMt_QrWiglbx-ISHmp0-2">
          <mxGeometry width="80" relative="1" as="geometry">
            <mxPoint x="90" y="840" as="sourcePoint" />
            <mxPoint x="170" y="840" as="targetPoint" />
          </mxGeometry>
        </mxCell>
        <mxCell id="HVMt_QrWiglbx-ISHmp0-8" value="&lt;font style=&quot;font-size: 8px;&quot;&gt;проверка&lt;br&gt;доступности&amp;nbsp;&lt;br&gt;курса&lt;/font&gt;" style="html=1;align=left;spacingLeft=2;endArrow=block;rounded=0;edgeStyle=orthogonalEdgeStyle;curved=0;rounded=0;" edge="1" parent="1">
          <mxGeometry relative="1" as="geometry">
            <mxPoint x="225" y="850" as="sourcePoint" />
            <Array as="points">
              <mxPoint x="250" y="850" />
              <mxPoint x="250" y="880" />
            </Array>
            <mxPoint x="225" y="880" as="targetPoint" />
          </mxGeometry>
        </mxCell>
        <mxCell id="HVMt_QrWiglbx-ISHmp0-9" value="alt" style="shape=umlFrame;whiteSpace=wrap;html=1;pointerEvents=0;" vertex="1" parent="1">
          <mxGeometry x="20" y="890" width="290" height="110" as="geometry" />
        </mxCell>
        <mxCell id="HVMt_QrWiglbx-ISHmp0-10" value="" style="endArrow=none;endSize=12;dashed=1;html=1;rounded=0;entryX=0.987;entryY=0.518;entryDx=0;entryDy=0;entryPerimeter=0;endFill=0;exitX=0.006;exitY=0.522;exitDx=0;exitDy=0;exitPerimeter=0;" edge="1" parent="1" source="HVMt_QrWiglbx-ISHmp0-9" target="HVMt_QrWiglbx-ISHmp0-9">
          <mxGeometry width="160" relative="1" as="geometry">
            <mxPoint x="20" y="1010" as="sourcePoint" />
            <mxPoint x="180" y="1010" as="targetPoint" />
          </mxGeometry>
        </mxCell>
        <mxCell id="HVMt_QrWiglbx-ISHmp0-12" value="&lt;span style=&quot;font-size: 8px;&quot;&gt;добавлять&lt;br&gt;пользователя&lt;/span&gt;" style="html=1;align=left;spacingLeft=2;endArrow=block;rounded=0;edgeStyle=orthogonalEdgeStyle;curved=0;rounded=0;" edge="1" parent="1">
          <mxGeometry relative="1" as="geometry">
            <mxPoint x="224.98" y="910" as="sourcePoint" />
            <Array as="points">
              <mxPoint x="249.98" y="910" />
              <mxPoint x="249.98" y="940" />
            </Array>
            <mxPoint x="224.98" y="940" as="targetPoint" />
          </mxGeometry>
        </mxCell>
        <mxCell id="HVMt_QrWiglbx-ISHmp0-13" value="&lt;font style=&quot;font-size: 8px;&quot;&gt;курс недоступен&lt;/font&gt;" style="html=1;verticalAlign=bottom;endArrow=block;curved=0;rounded=0;" edge="1" parent="1">
          <mxGeometry width="80" relative="1" as="geometry">
            <mxPoint x="222.8" y="979.85" as="sourcePoint" />
            <mxPoint x="90.00149253731335" y="979.85" as="targetPoint" />
          </mxGeometry>
        </mxCell>
        <mxCell id="HVMt_QrWiglbx-ISHmp0-14" value="&lt;span style=&quot;font-size: 8px;&quot;&gt;выбрать&amp;nbsp;&lt;/span&gt;&lt;div&gt;&lt;span style=&quot;font-size: 8px;&quot;&gt;тип платежа&lt;/span&gt;&lt;/div&gt;" style="html=1;align=left;spacingLeft=2;endArrow=block;rounded=0;edgeStyle=orthogonalEdgeStyle;curved=0;rounded=0;" edge="1" parent="1">
          <mxGeometry relative="1" as="geometry">
            <mxPoint x="90" y="1010" as="sourcePoint" />
            <Array as="points">
              <mxPoint x="115.00000000000003" y="1010" />
              <mxPoint x="115.00000000000003" y="1040" />
            </Array>
            <mxPoint x="90" y="1040" as="targetPoint" />
          </mxGeometry>
        </mxCell>
        <mxCell id="HVMt_QrWiglbx-ISHmp0-16" value="&lt;span style=&quot;font-size: 8px;&quot;&gt;вносить сумму&lt;/span&gt;" style="html=1;verticalAlign=bottom;endArrow=block;curved=0;rounded=0;" edge="1" parent="1" target="HVMt_QrWiglbx-ISHmp0-3">
          <mxGeometry width="80" relative="1" as="geometry">
            <mxPoint x="92.5" y="1060" as="sourcePoint" />
            <mxPoint x="227.5" y="1060" as="targetPoint" />
          </mxGeometry>
        </mxCell>
        <mxCell id="HVMt_QrWiglbx-ISHmp0-17" value="alt" style="shape=umlFrame;whiteSpace=wrap;html=1;pointerEvents=0;" vertex="1" parent="1">
          <mxGeometry x="15" y="1080" width="385" height="110" as="geometry" />
        </mxCell>
        <mxCell id="HVMt_QrWiglbx-ISHmp0-18" value="&lt;span style=&quot;font-size: 8px;&quot;&gt;активация&lt;/span&gt;" style="html=1;align=left;spacingLeft=2;endArrow=block;rounded=0;edgeStyle=orthogonalEdgeStyle;curved=0;rounded=0;" edge="1" parent="1">
          <mxGeometry relative="1" as="geometry">
            <mxPoint x="360" y="1090" as="sourcePoint" />
            <Array as="points">
              <mxPoint x="385" y="1090" />
              <mxPoint x="385" y="1120" />
            </Array>
            <mxPoint x="360" y="1120" as="targetPoint" />
          </mxGeometry>
        </mxCell>
        <mxCell id="HVMt_QrWiglbx-ISHmp0-19" value="&lt;font style=&quot;font-size: 8px;&quot;&gt;предложение повторить оплату&lt;/font&gt;" style="html=1;verticalAlign=bottom;endArrow=block;curved=0;rounded=0;" edge="1" parent="1" target="HVMt_QrWiglbx-ISHmp0-1">
          <mxGeometry width="80" relative="1" as="geometry">
            <mxPoint x="364" y="1170" as="sourcePoint" />
            <mxPoint x="94" y="1170" as="targetPoint" />
          </mxGeometry>
        </mxCell>
        <mxCell id="HVMt_QrWiglbx-ISHmp0-20" value="" style="endArrow=none;endSize=12;dashed=1;html=1;rounded=0;endFill=0;exitX=-0.001;exitY=0.521;exitDx=0;exitDy=0;exitPerimeter=0;" edge="1" parent="1" source="HVMt_QrWiglbx-ISHmp0-17">
          <mxGeometry width="160" relative="1" as="geometry">
            <mxPoint x="116" y="1134.6399999999999" as="sourcePoint" />
            <mxPoint x="400" y="1137" as="targetPoint" />
          </mxGeometry>
        </mxCell>
        <mxCell id="HVMt_QrWiglbx-ISHmp0-21" value="&lt;span style=&quot;font-size: 8px;&quot;&gt;начать&lt;/span&gt;&lt;div&gt;&lt;span style=&quot;font-size: 8px;&quot;&gt;обучение&lt;/span&gt;&lt;/div&gt;" style="html=1;align=left;spacingLeft=2;endArrow=block;rounded=0;edgeStyle=orthogonalEdgeStyle;curved=0;rounded=0;" edge="1" parent="1">
          <mxGeometry relative="1" as="geometry">
            <mxPoint x="90" y="1200" as="sourcePoint" />
            <Array as="points">
              <mxPoint x="115.00000000000003" y="1200" />
              <mxPoint x="115.00000000000003" y="1230" />
            </Array>
            <mxPoint x="90" y="1230" as="targetPoint" />
          </mxGeometry>
        </mxCell>
        <mxCell id="HVMt_QrWiglbx-ISHmp0-23" value="&lt;span style=&quot;font-size: 8px;&quot;&gt;отправить задание&lt;/span&gt;" style="html=1;verticalAlign=bottom;endArrow=block;curved=0;rounded=0;" edge="1" parent="1">
          <mxGeometry width="80" relative="1" as="geometry">
            <mxPoint x="90" y="1260" as="sourcePoint" />
            <mxPoint x="220" y="1260" as="targetPoint" />
          </mxGeometry>
        </mxCell>
        <mxCell id="HVMt_QrWiglbx-ISHmp0-24" value="loop" style="shape=umlFrame;whiteSpace=wrap;html=1;pointerEvents=0;" vertex="1" parent="1">
          <mxGeometry x="20" y="1240" width="260" height="80" as="geometry" />
        </mxCell>
        <mxCell id="HVMt_QrWiglbx-ISHmp0-25" value="&lt;span style=&quot;font-size: 8px;&quot;&gt;отслеживание&amp;nbsp;&lt;br&gt;заданий&lt;/span&gt;" style="html=1;align=left;spacingLeft=2;endArrow=block;rounded=0;edgeStyle=orthogonalEdgeStyle;curved=0;rounded=0;" edge="1" parent="1">
          <mxGeometry relative="1" as="geometry">
            <mxPoint x="225" y="1270" as="sourcePoint" />
            <Array as="points">
              <mxPoint x="250.00000000000003" y="1270" />
              <mxPoint x="250.00000000000003" y="1300" />
            </Array>
            <mxPoint x="225" y="1300" as="targetPoint" />
          </mxGeometry>
        </mxCell>
        <mxCell id="HVMt_QrWiglbx-ISHmp0-27" value="&lt;span style=&quot;font-size: 8px;&quot;&gt;проверка&lt;br&gt;результатов&lt;/span&gt;" style="html=1;align=left;spacingLeft=2;endArrow=block;rounded=0;edgeStyle=orthogonalEdgeStyle;curved=0;rounded=0;" edge="1" parent="1">
          <mxGeometry relative="1" as="geometry">
            <mxPoint x="225" y="1330" as="sourcePoint" />
            <Array as="points">
              <mxPoint x="250" y="1330" />
              <mxPoint x="250" y="1360" />
            </Array>
            <mxPoint x="225" y="1360" as="targetPoint" />
          </mxGeometry>
        </mxCell>
        <mxCell id="HVMt_QrWiglbx-ISHmp0-29" value="alt" style="shape=umlFrame;whiteSpace=wrap;html=1;pointerEvents=0;" vertex="1" parent="1">
          <mxGeometry x="15" y="1380" width="245" height="110" as="geometry" />
        </mxCell>
        <mxCell id="HVMt_QrWiglbx-ISHmp0-30" value="" style="endArrow=none;endSize=12;dashed=1;html=1;rounded=0;endFill=0;exitX=-0.001;exitY=0.521;exitDx=0;exitDy=0;exitPerimeter=0;entryX=1.004;entryY=0.55;entryDx=0;entryDy=0;entryPerimeter=0;" edge="1" parent="1" target="HVMt_QrWiglbx-ISHmp0-29">
          <mxGeometry width="160" relative="1" as="geometry">
            <mxPoint x="15" y="1440" as="sourcePoint" />
            <mxPoint x="290" y="1440" as="targetPoint" />
          </mxGeometry>
        </mxCell>
        <mxCell id="HVMt_QrWiglbx-ISHmp0-31" value="&lt;font style=&quot;font-size: 8px;&quot;&gt;сертификат&lt;/font&gt;" style="html=1;verticalAlign=bottom;endArrow=block;curved=0;rounded=0;" edge="1" parent="1" source="HVMt_QrWiglbx-ISHmp0-2">
          <mxGeometry width="80" relative="1" as="geometry">
            <mxPoint x="220" y="1410" as="sourcePoint" />
            <mxPoint x="90" y="1410" as="targetPoint" />
          </mxGeometry>
        </mxCell>
        <mxCell id="HVMt_QrWiglbx-ISHmp0-32" value="&lt;font style=&quot;font-size: 8px;&quot;&gt;предложение пересдать тесты&lt;/font&gt;" style="html=1;verticalAlign=bottom;endArrow=block;curved=0;rounded=0;" edge="1" parent="1">
          <mxGeometry width="80" relative="1" as="geometry">
            <mxPoint x="225" y="1470" as="sourcePoint" />
            <mxPoint x="90" y="1470" as="targetPoint" />
          </mxGeometry>
        </mxCell>
        <mxCell id="HVMt_QrWiglbx-ISHmp0-34" value="&lt;font style=&quot;font-size: 8px;&quot;&gt;результаты заданий&lt;/font&gt;" style="html=1;verticalAlign=bottom;endArrow=block;curved=0;rounded=0;" edge="1" parent="1">
          <mxGeometry width="80" relative="1" as="geometry">
            <mxPoint x="225" y="1310" as="sourcePoint" />
            <mxPoint x="90" y="1310" as="targetPoint" />
          </mxGeometry>
        </mxCell>
        <mxCell id="HVMt_QrWiglbx-ISHmp0-35" value="&lt;span style=&quot;font-size: 8px;&quot;&gt;скачать&lt;br&gt;сертифкат&lt;/span&gt;" style="html=1;align=left;spacingLeft=2;endArrow=block;rounded=0;edgeStyle=orthogonalEdgeStyle;curved=0;rounded=0;" edge="1" parent="1">
          <mxGeometry relative="1" as="geometry">
            <mxPoint x="90" y="1500" as="sourcePoint" />
            <Array as="points">
              <mxPoint x="115" y="1500" />
              <mxPoint x="115" y="1530" />
            </Array>
            <mxPoint x="90" y="1530" as="targetPoint" />
            <mxPoint as="offset" />
          </mxGeometry>
        </mxCell>
        <mxCell id="HVMt_QrWiglbx-ISHmp0-36" value="&lt;span style=&quot;font-size: 8px;&quot;&gt;сохранять данные&amp;nbsp;&lt;/span&gt;" style="html=1;verticalAlign=bottom;endArrow=block;curved=0;rounded=0;" edge="1" parent="1">
          <mxGeometry x="0.0003" width="80" relative="1" as="geometry">
            <mxPoint x="227.75" y="1550" as="sourcePoint" />
            <mxPoint x="498.25" y="1550" as="targetPoint" />
            <mxPoint as="offset" />
          </mxGeometry>
        </mxCell>
      </root>
    </mxGraphModel>
  </diagram>
</mxfile>
